<svg width="900" height="320" viewBox="0 0 900 320" xmlns="http://www.w3.org/2000/svg">
<rect x="1" y="1" width="898" height="318" rx="10" fill="#0a0e14" stroke="#22d3ee" stroke-opacity="0.55"/>
<text x="28" y="38" font-family="JetBrains Mono, monospace" font-size="14" fill="#7dd3e8">tech_stack</text>
<line x1="24" y1="52" x2="876" y2="52" stroke="#123842"/>
<text x="28" y="60" font-family="JetBrains Mono, monospace" font-size="13" font-weight="700" fill="#22d3ee" letter-spacing="1">PROGRAMMING LANGUAGES</text>
<rect x="28.0" y="68.0" width="85.6" height="34" rx="8" fill="none" stroke="#1c5f68" stroke-width="1.4"/>
<text x="70.8" y="91.0" text-anchor="middle" font-family="JetBrains Mono, monospace" font-size="14" font-weight="600" fill="#f2fbfc">Python</text>
<rect x="125.6" y="68.0" width="70.0" height="34" rx="8" fill="none" stroke="#1c5f68" stroke-width="1.4"/>
<text x="160.6" y="91.0" text-anchor="middle" font-family="JetBrains Mono, monospace" font-size="14" font-weight="600" fill="#f2fbfc">Java</text>
<rect x="207.6" y="68.0" width="70.0" height="34" rx="8" fill="none" stroke="#1c5f68" stroke-width="1.4"/>
<text x="242.6" y="91.0" text-anchor="middle" font-family="JetBrains Mono, monospace" font-size="14" font-weight="600" fill="#f2fbfc">C</text>
<rect x="289.6" y="68.0" width="120.0" height="34" rx="8" fill="none" stroke="#1c5f68" stroke-width="1.4"/>
<text x="349.6" y="91.0" text-anchor="middle" font-family="JetBrains Mono, monospace" font-size="14" font-weight="600" fill="#f2fbfc">JavaScript</text>
<rect x="421.6" y="68.0" width="70.0" height="34" rx="8" fill="none" stroke="#1c5f68" stroke-width="1.4"/>
<text x="456.6" y="91.0" text-anchor="middle" font-family="JetBrains Mono, monospace" font-size="14" font-weight="600" fill="#f2fbfc">HTML</text>
<rect x="503.6" y="68.0" width="70.0" height="34" rx="8" fill="none" stroke="#1c5f68" stroke-width="1.4"/>
<text x="538.6" y="91.0" text-anchor="middle" font-family="JetBrains Mono, monospace" font-size="14" font-weight="600" fill="#f2fbfc">CSS</text>
<rect x="585.6" y="68.0" width="70.0" height="34" rx="8" fill="none" stroke="#1c5f68" stroke-width="1.4"/>
<text x="620.6" y="91.0" text-anchor="middle" font-family="JetBrains Mono, monospace" font-size="14" font-weight="600" fill="#f2fbfc">Dart</text>
<rect x="667.6" y="68.0" width="70.0" height="34" rx="8" fill="none" stroke="#1c5f68" stroke-width="1.4"/>
<text x="702.6" y="91.0" text-anchor="middle" font-family="JetBrains Mono, monospace" font-size="14" font-weight="600" fill="#f2fbfc">SQL</text>
<rect x="749.6" y="68.0" width="120.0" height="34" rx="8" fill="none" stroke="#1c5f68" stroke-width="1.4"/>
<text x="809.6" y="91.0" text-anchor="middle" font-family="JetBrains Mono, monospace" font-size="14" font-weight="600" fill="#f2fbfc">TypeScript</text>
<text x="28" y="122" font-family="JetBrains Mono, monospace" font-size="13" font-weight="700" fill="#22d3ee" letter-spacing="1">FRAMEWORKS &amp; LIBRARIES</text>
<rect x="28.0" y="130.0" width="137.2" height="34" rx="8" fill="none" stroke="#1c5f68" stroke-width="1.4"/>
<text x="96.6" y="153.0" text-anchor="middle" font-family="JetBrains Mono, monospace" font-size="14" font-weight="600" fill="#f2fbfc">Scikit-learn</text>
<rect x="177.2" y="130.0" width="94.2" height="34" rx="8" fill="none" stroke="#1c5f68" stroke-width="1.4"/>
<text x="224.3" y="153.0" text-anchor="middle" font-family="JetBrains Mono, monospace" font-size="14" font-weight="600" fill="#f2fbfc">Flutter</text>
<rect x="283.4" y="130.0" width="94.2" height="34" rx="8" fill="none" stroke="#1c5f68" stroke-width="1.4"/>
<text x="330.5" y="153.0" text-anchor="middle" font-family="JetBrains Mono, monospace" font-size="14" font-weight="600" fill="#f2fbfc">PyTorch</text>
<rect x="389.6" y="130.0" width="120.0" height="34" rx="8" fill="none" stroke="#1c5f68" stroke-width="1.4"/>
<text x="449.6" y="153.0" text-anchor="middle" font-family="JetBrains Mono, monospace" font-size="14" font-weight="600" fill="#f2fbfc">TensorFlow</text>
<rect x="521.6" y="130.0" width="77.0" height="34" rx="8" fill="none" stroke="#1c5f68" stroke-width="1.4"/>
<text x="560.1" y="153.0" text-anchor="middle" font-family="JetBrains Mono, monospace" font-size="14" font-weight="600" fill="#f2fbfc">React</text>
<rect x="610.6" y="130.0" width="94.2" height="34" rx="8" fill="none" stroke="#1c5f68" stroke-width="1.4"/>
<text x="657.7" y="153.0" text-anchor="middle" font-family="JetBrains Mono, monospace" font-size="14" font-weight="600" fill="#f2fbfc">FastAPI</text>
<rect x="716.8" y="130.0" width="94.2" height="34" rx="8" fill="none" stroke="#1c5f68" stroke-width="1.4"/>
<text x="763.9" y="153.0" text-anchor="middle" font-family="JetBrains Mono, monospace" font-size="14" font-weight="600" fill="#f2fbfc">Node.js</text>
<text x="28" y="184" font-family="JetBrains Mono, monospace" font-size="13" font-weight="700" fill="#22d3ee" letter-spacing="1">DATABASES</text>
<rect x="28.0" y="192.0" width="77.0" height="34" rx="8" fill="none" stroke="#1c5f68" stroke-width="1.4"/>
<text x="66.5" y="215.0" text-anchor="middle" font-family="JetBrains Mono, monospace" font-size="14" font-weight="600" fill="#f2fbfc">MySQL</text>
<rect x="117.0" y="192.0" width="94.2" height="34" rx="8" fill="none" stroke="#1c5f68" stroke-width="1.4"/>
<text x="164.1" y="215.0" text-anchor="middle" font-family="JetBrains Mono, monospace" font-size="14" font-weight="600" fill="#f2fbfc">MongoDB</text>
<rect x="223.2" y="192.0" width="102.8" height="34" rx="8" fill="none" stroke="#1c5f68" stroke-width="1.4"/>
<text x="274.6" y="215.0" text-anchor="middle" font-family="JetBrains Mono, monospace" font-size="14" font-weight="600" fill="#f2fbfc">Firebase</text>
<rect x="338.0" y="192.0" width="120.0" height="34" rx="8" fill="none" stroke="#1c5f68" stroke-width="1.4"/>
<text x="398.0" y="215.0" text-anchor="middle" font-family="JetBrains Mono, monospace" font-size="14" font-weight="600" fill="#f2fbfc">PostgreSQL</text>
<text x="28" y="246" font-family="JetBrains Mono, monospace" font-size="13" font-weight="700" fill="#22d3ee" letter-spacing="1">TOOLS &amp; PLATFORMS</text>
<rect x="28.0" y="254.0" width="70.0" height="34" rx="8" fill="none" stroke="#1c5f68" stroke-width="1.4"/>
<text x="63.0" y="277.0" text-anchor="middle" font-family="JetBrains Mono, monospace" font-size="14" font-weight="600" fill="#f2fbfc">Git</text>
<rect x="110.0" y="254.0" width="85.6" height="34" rx="8" fill="none" stroke="#1c5f68" stroke-width="1.4"/>
<text x="152.8" y="277.0" text-anchor="middle" font-family="JetBrains Mono, monospace" font-size="14" font-weight="600" fill="#f2fbfc">GitHub</text>
<rect x="207.6" y="254.0" width="94.2" height="34" rx="8" fill="none" stroke="#1c5f68" stroke-width="1.4"/>
<text x="254.7" y="277.0" text-anchor="middle" font-family="JetBrains Mono, monospace" font-size="14" font-weight="600" fill="#f2fbfc">VS Code</text>
<rect x="313.8" y="254.0" width="171.6" height="34" rx="8" fill="none" stroke="#1c5f68" stroke-width="1.4"/>
<text x="399.6" y="277.0" text-anchor="middle" font-family="JetBrains Mono, monospace" font-size="14" font-weight="600" fill="#f2fbfc">Jupyter Notebook</text>
<rect x="497.4" y="254.0" width="94.2" height="34" rx="8" fill="none" stroke="#1c5f68" stroke-width="1.4"/>
<text x="544.5" y="277.0" text-anchor="middle" font-family="JetBrains Mono, monospace" font-size="14" font-weight="600" fill="#f2fbfc">Postman</text>
<rect x="603.6" y="254.0" width="85.6" height="34" rx="8" fill="none" stroke="#1c5f68" stroke-width="1.4"/>
<text x="646.4" y="277.0" text-anchor="middle" font-family="JetBrains Mono, monospace" font-size="14" font-weight="600" fill="#f2fbfc">Docker</text>
</svg>